# xmcd
#
# Track frame offsets: 
#        150
#        14924
#        30253
#        43481
#        53219
#        65237
#        78235
#        89650
#        99724
#        108971
#        120194
#        132125
#        148159
#        161318
#
# Disc length: 2344 seconds
#
# Revision: 0
# Processed by: cddbd v1.5.2PL0 Copyright (c) Steve Scherf et al.
# Submitted via: ExactAudioCopyFreeDBPlugin 1.0
#
DISCID=c009260e
DTITLE=Mindless Self Indulgence - How I Learned to Stop Giving a Shit 
DTITLE=and Love Mindless Self Indulgence
DYEAR=2013
DGENRE=Techno-Industrial
TTITLE0=Witness
TTITLE1=Fuck Machine
TTITLE2=It Gets Worse
TTITLE3=I Want to Be Black
TTITLE4=Hey Tomorrow Fuck You and Your Friend Yesterday
TTITLE5=You're No Fun Anymore Mark Trezona
TTITLE6=Ala Mode
TTITLE7=Casio
TTITLE8=Anonymous
TTITLE9=Kill You All in a Hip Hop Rage
TTITLE10=Stalkers (Slit My Wrists)
TTITLE11=Jack You Up
TTITLE12=Ass Backwards
TTITLE13=Sex for Homework
EXTD=
EXTT0=
EXTT1=
EXTT2=
EXTT3=
EXTT4=
EXTT5=
EXTT6=
EXTT7=
EXTT8=
EXTT9=
EXTT10=
EXTT11=
EXTT12=
EXTT13=
PLAYORDER=
